HIERARCHY
ROOT hip
{
  OFFSET 5.70873 43.8894 -1.52928
  CHANNELS 6 Xposition Yposition Zposition Zrotation Xrotation Yrotation
  JOINT abdomen
  {
    OFFSET 0 5.99393 0.287273
    CHANNELS 6 Xposition Yposition Zposition Zrotation Xrotation Yrotation
    JOINT chest
    {
      OFFSET 0 6.65865 -0.856112
      CHANNELS 6 Xposition Yposition Zposition Zrotation Xrotation Yrotation
      JOINT neck
      {
        OFFSET 0 8.65624 -1.42685
        CHANNELS 6 Xposition Yposition Zposition Zrotation Xrotation Yrotation
        JOINT head
        {
          OFFSET 0 3.80999 -0.190247
          CHANNELS 6 Xposition Yposition Zposition Zrotation Xrotation Yrotation
          End Site
          {
            OFFSET 0 0 0
          }
        }
      }
      JOINT rCollar
      {
        OFFSET -1.4963 7.5744 -1.52136
        CHANNELS 6 Xposition Yposition Zposition Zrotation Xrotation Yrotation
        JOINT rShldr
        {
          OFFSET -5.47506 -0.905672 0.485692
          CHANNELS 6 Xposition Yposition Zposition Zrotation Xrotation Yrotation
          JOINT rForeArm
          {
            OFFSET -11.3069 -0.201091 0.618544
            CHANNELS 6 Xposition Yposition Zposition Zrotation Xrotation Yrotation
            JOINT rHand
            {
              OFFSET -9.61414 -0.254739 3.48553
              CHANNELS 6 Xposition Yposition Zposition Zrotation Xrotation Yrotation
              JOINT rThumb1
              {
                OFFSET 0.176263 -0.07068 1.26622
                CHANNELS 6 Xposition Yposition Zposition Zrotation Xrotation Yrotation
                JOINT rThumb2
                {
                  OFFSET -1.04683 -0.546484 1.82182
                  CHANNELS 6 Xposition Yposition Zposition Zrotation Xrotation Yrotation
                  JOINT rThumb3
                  {
                    OFFSET -0.993472 -0.621916 0.655506
                    CHANNELS 6 Xposition Yposition Zposition Zrotation Xrotation Yrotation
                    End Site
                    {
                      OFFSET -0.996134 -0.66263 0.644615
                    }
                  }
                }
              }
              JOINT rIndex1
              {
                OFFSET -2.64253 0.566363 2.4162
                CHANNELS 6 Xposition Yposition Zposition Zrotation Xrotation Yrotation
                JOINT rIndex2
                {
                  OFFSET -1.39394 -0.635138 0.899356
                  CHANNELS 6 Xposition Yposition Zposition Zrotation Xrotation Yrotation
                  JOINT rIndex3
                  {
                    OFFSET -0.622395 -0.856016 0.402182
                    CHANNELS 6 Xposition Yposition Zposition Zrotation Xrotation Yrotation
                    End Site
                    {
                      OFFSET -0.472476 -0.801802 0.34216
                    }
                  }
                }
              }
              JOINT rMid1
              {
                OFFSET -3.20814 0.514427 1.52547
                CHANNELS 6 Xposition Yposition Zposition Zrotation Xrotation Yrotation
                JOINT rMid2
                {
                  OFFSET -1.56545 -0.497974 0.68919
                  CHANNELS 6 Xposition Yposition Zposition Zrotation Xrotation Yrotation
                  JOINT rMid3
                  {
                    OFFSET -0.679943 -1.17582 0.444246
                    CHANNELS 6 Xposition Yposition Zposition Zrotation Xrotation Yrotation
                    End Site
                    {
                      OFFSET -0.343874 -0.941341 0.267611
                    }
                  }
                }
              }
              JOINT rRing1
              {
                OFFSET -3.47877 0.200518 0.597719
                CHANNELS 6 Xposition Yposition Zposition Zrotation Xrotation Yrotation
                JOINT rRing2
                {
                  OFFSET -1.28208 -0.53155 0.44672
                  CHANNELS 6 Xposition Yposition Zposition Zrotation Xrotation Yrotation
                  JOINT rRing3
                  {
                    OFFSET -0.710288 -0.970167 0.4032
                    CHANNELS 6 Xposition Yposition Zposition Zrotation Xrotation Yrotation
                    End Site
                    {
                      OFFSET -0.403228 -0.950952 0.378354
                    }
                  }
                }
              }
              JOINT rPinky1
              {
                OFFSET -3.42483 -0.278904 -0.240415
                CHANNELS 6 Xposition Yposition Zposition Zrotation Xrotation Yrotation
                JOINT rPinky2
                {
                  OFFSET -1.05787 -0.635999 0.156459
                  CHANNELS 6 Xposition Yposition Zposition Zrotation Xrotation Yrotation
                  JOINT rPinky3
                  {
                    OFFSET -0.42815 -0.754232 0.287187
                    CHANNELS 6 Xposition Yposition Zposition Zrotation Xrotation Yrotation
                    End Site
                    {
                      OFFSET -0.235717 -0.725605 0.279416
                    }
                  }
                }
              }
            }
          }
        }
      }
      JOINT lCollar
      {
        OFFSET 1.4963 7.5744 -1.52136
        CHANNELS 6 Xposition Yposition Zposition Zrotation Xrotation Yrotation
        JOINT lShldr
        {
          OFFSET 5.47506 -0.905672 0.485692
          CHANNELS 6 Xposition Yposition Zposition Zrotation Xrotation Yrotation
          JOINT lForeArm
          {
            OFFSET 11.3069 -0.201091 0.618544
            CHANNELS 6 Xposition Yposition Zposition Zrotation Xrotation Yrotation
            JOINT lHand
            {
              OFFSET 9.61414 -0.254739 3.48553
              CHANNELS 6 Xposition Yposition Zposition Zrotation Xrotation Yrotation
              JOINT lThumb1
              {
                OFFSET -0.176263 -0.07068 1.26622
                CHANNELS 6 Xposition Yposition Zposition Zrotation Xrotation Yrotation
                JOINT lThumb2
                {
                  OFFSET 1.04683 -0.546484 1.82182
                  CHANNELS 6 Xposition Yposition Zposition Zrotation Xrotation Yrotation
                  JOINT lThumb3
                  {
                    OFFSET 0.993472 -0.621916 0.655506
                    CHANNELS 6 Xposition Yposition Zposition Zrotation Xrotation Yrotation
                    End Site
                    {
                      OFFSET 0.996134 -0.66263 0.644615
                    }
                  }
                }
              }
              JOINT lIndex1
              {
                OFFSET 2.64253 0.566363 2.4162
                CHANNELS 6 Xposition Yposition Zposition Zrotation Xrotation Yrotation
                JOINT lIndex2
                {
                  OFFSET 1.39394 -0.635138 0.899356
                  CHANNELS 6 Xposition Yposition Zposition Zrotation Xrotation Yrotation
                  JOINT lIndex3
                  {
                    OFFSET 0.622395 -0.856016 0.402182
                    CHANNELS 6 Xposition Yposition Zposition Zrotation Xrotation Yrotation
                    End Site
                    {
                      OFFSET 0.472476 -0.801802 0.34216
                    }
                  }
                }
              }
              JOINT lMid1
              {
                OFFSET 3.20814 0.514427 1.52547
                CHANNELS 6 Xposition Yposition Zposition Zrotation Xrotation Yrotation
                JOINT lMid2
                {
                  OFFSET 1.56545 -0.497974 0.68919
                  CHANNELS 6 Xposition Yposition Zposition Zrotation Xrotation Yrotation
                  JOINT lMid3
                  {
                    OFFSET 0.679943 -1.17582 0.444246
                    CHANNELS 6 Xposition Yposition Zposition Zrotation Xrotation Yrotation
                    End Site
                    {
                      OFFSET 0.343874 -0.941341 0.267611
                    }
                  }
                }
              }
              JOINT lRing1
              {
                OFFSET 3.47877 0.200518 0.597719
                CHANNELS 6 Xposition Yposition Zposition Zrotation Xrotation Yrotation
                JOINT lRing2
                {
                  OFFSET 1.28208 -0.53155 0.44672
                  CHANNELS 6 Xposition Yposition Zposition Zrotation Xrotation Yrotation
                  JOINT lRing3
                  {
                    OFFSET 0.710288 -0.970167 0.4032
                    CHANNELS 6 Xposition Yposition Zposition Zrotation Xrotation Yrotation
                    End Site
                    {
                      OFFSET 0.403228 -0.950952 0.378354
                    }
                  }
                }
              }
              JOINT lPinky1
              {
                OFFSET 3.42483 -0.278904 -0.240415
                CHANNELS 6 Xposition Yposition Zposition Zrotation Xrotation Yrotation
                JOINT lPinky2
                {
                  OFFSET 1.05787 -0.635999 0.156459
                  CHANNELS 6 Xposition Yposition Zposition Zrotation Xrotation Yrotation
                  JOINT lPinky3
                  {
                    OFFSET 0.42815 -0.754232 0.287187
                    CHANNELS 6 Xposition Yposition Zposition Zrotation Xrotation Yrotation
                    End Site
                    {
                      OFFSET 0.235717 -0.725605 0.279416
                    }
                  }
                }
              }
            }
          }
        }
      }
    }
  }
  JOINT rThigh
  {
    OFFSET -4.17848 -1.02486 0.046356
    CHANNELS 6 Xposition Yposition Zposition Zrotation Xrotation Yrotation
    JOINT rShin
    {
      OFFSET 1.27155 -17.465 -0.237699
      CHANNELS 6 Xposition Yposition Zposition Zrotation Xrotation Yrotation
      JOINT rFoot
      {
        OFFSET 0.529163 -17.3815 -1.19582
        CHANNELS 6 Xposition Yposition Zposition Zrotation Xrotation Yrotation
        JOINT rToe
        {
          OFFSET -0.711591 -4.4863 4.0596
          CHANNELS 6 Xposition Yposition Zposition Zrotation Xrotation Yrotation
          End Site
          {
            OFFSET -0.869915 -1.10655 1.99006
          }
        }
      }
    }
  }
  JOINT lThigh
  {
    OFFSET 4.17848 -1.02486 0.046356
    CHANNELS 6 Xposition Yposition Zposition Zrotation Xrotation Yrotation
    JOINT lShin
    {
      OFFSET -1.27155 -17.465 -0.237699
      CHANNELS 6 Xposition Yposition Zposition Zrotation Xrotation Yrotation
      JOINT lFoot
      {
        OFFSET -0.529163 -17.3815 -1.19582
        CHANNELS 6 Xposition Yposition Zposition Zrotation Xrotation Yrotation
        JOINT lToe
        {
          OFFSET 0.711591 -4.4863 4.0596
          CHANNELS 6 Xposition Yposition Zposition Zrotation Xrotation Yrotation
          End Site
          {
            OFFSET 0.869915 -1.10655 1.99006
          }
        }
      }
    }
  }
}
MOTION
Frames:	4
Frame Time:	0.0333333
-6.05556 23.1381 -8.72299 3.94535 -6.70974 -44.3541 -1.77636e-015 5.99393 0.287273 -3.63329 0.404834 4.90173 0 6.65865 -0.856112 -7.28798 0.497084 9.81945 0 8.65624 -1.42685 17.2391 12.7215 41.1732 0 3.80999 -0.190247 -14.2294 17.1644 27.8251 -1.4963 7.5744 -1.52136 -25.0759 -0.153708 27.7832 -5.47506 -0.905672 0.485692 25.4361 -49.8568 43.8732 -11.3069 -0.201091 0.618544 33.7148 -17.8658 95.6006 -9.61414 -0.254739 3.48553 -64.8108 -29.588 -68.2453 0.176263 -0.07068 1.26622 -25.2906 38.3005 34.3212 -1.04683 -0.546484 1.82182 2.22036 -2.09241 6.32159 -0.993472 -0.621916 0.655506 -4.31608 5.93577 -14.9414 -2.64253 0.566363 2.4162 5.00767 6.45333 -12.2516 -1.39394 -0.635138 0.899356 43.6603 8.06781 -9.86697 -0.622395 -0.856016 0.402182 45.8621 8.24903 -10.491 -3.20814 0.514427 1.52547 5.18022 2.18572 -3.99611 -1.56545 -0.497974 0.68919 52.7411 10.5331 -13.0892 -0.679943 -1.17582 0.444246 21.8831 5.90857 -4.26144 -3.47877 0.200518 0.597719 14.864 -0.987246 -5.60151 -1.28208 -0.53155 0.44672 25.1992 7.3211 -6.23672 -0.710288 -0.970167 0.4032 26.7802 7.67271 -6.71942 -3.42483 -0.278904 -0.240415 0.0184568 -6.23569 -4.86322 -1.05787 -0.635999 0.156459 27.339 8.61123 -6.70785 -0.42815 -0.754232 0.287187 19.1863 6.43522 -4.31389 1.4963 7.5744 -1.52136 26.8413 2.42656 -4.62583 5.47506 -0.905672 0.485692 -53.9917 -12.0968 -58.3098 11.3069 -0.201091 0.618544 -45.3121 13.1996 -96.114 9.61414 -0.254739 3.48553 13.4588 -33.7109 7.07674 -0.176263 -0.07068 1.26622 17.0668 48.8109 -18.4235 1.04683 -0.546484 1.82182 -1.90755 -0.505783 -3.38049 0.993472 -0.621916 0.655506 6.4512 2.6672 11.8095 2.64253 0.566363 2.4162 23.8198 1.36705 8.77875 1.39394 -0.635138 0.899356 -33.386 6.59713 15.276 0.622395 -0.856016 0.402182 -38.0066 6.76632 17.5558 3.20814 0.514427 1.52547 6.30036 2.3751 6.3808 1.56545 -0.497974 0.68919 -44.4869 8.35713 21.4001 0.679943 -1.17582 0.444246 -30.543 7.62566 14.2225 3.47877 0.200518 0.597719 -9.54459 -2.20263 6.57192 1.28208 -0.53155 0.44672 -26.6969 7.72955 13.7579 0.710288 -0.970167 0.4032 -27.9837 7.924 14.4758 3.42483 -0.278904 -0.240415 -11.9637 -4.30697 3.85304 1.05787 -0.635999 0.156459 -22.7583 7.77593 11.4803 0.42815 -0.754232 0.287187 -20.506 7.24863 10.2542 -4.17848 -1.02486 0.046356 -35.6866 5.42929 -2.08997 1.27155 -17.465 -0.237699 80.6883 74.1855 -65.7358 0.529163 -17.3815 -1.19582 -9.37395 12.8773 8.09369 -0.711591 -4.4863 4.0596 -9.22434 40.5119 -2.98083 4.17848 -1.02486 0.046356 25.7249 1.07091 16.5315 -1.27155 -17.465 -0.237699 10.9086 77.0769 -14.5448 -0.529163 -17.3815 -1.19582 1.94778 42.8434 -36.9464 0.711591 -4.4863 4.0596 9.72733 39.3008 13.0031 
-5.68438 22.5974 -8.9511 3.94028 -5.96334 -45.1424 -1.77636e-015 5.99393 0.287273 -3.5905 0.446793 4.45201 0 6.65865 -0.856112 -7.20501 0.612752 8.92349 0 8.65624 -1.42685 17.617 12.2827 41.867 1.77636e-015 3.80999 -0.190247 -13.728 17.2404 27.8682 -1.4963 7.5744 -1.52136 -25.6825 -0.429659 28.5451 -5.47506 -0.905672 0.485692 25.7237 -50.0577 43.0529 -11.3069 -0.201091 0.618544 33.7247 -18.1704 96.3157 -9.61414 -0.254739 3.48553 -64.5113 -30.3312 -68.3868 0.176263 -0.07068 1.26622 -25.4567 37.9264 34.6777 -1.04683 -0.546484 1.82182 2.30325 -2.16196 6.54719 -0.993472 -0.621916 0.655506 -4.3156 5.93563 -14.9411 -2.64253 0.566363 2.4162 5.82776 6.45598 -12.2463 -1.39394 -0.635138 0.899356 43.7687 8.07725 -9.8975 -0.622395 -0.856016 0.402182 45.8621 8.24908 -10.491 -3.20814 0.514427 1.52547 5.35534 2.08382 -3.83657 -1.56545 -0.497974 0.68919 52.7411 10.5332 -13.0893 -0.679943 -1.17582 0.444246 21.2512 5.76469 -4.10946 -3.47877 0.200518 0.597719 14.8212 -0.996999 -5.59474 -1.28208 -0.53155 0.44672 24.8493 7.24155 -6.13093 -0.710288 -0.970167 0.4032 26.438 7.59799 -6.61403 -3.42483 -0.278904 -0.240415 -0.667983 -6.38461 -4.98476 -1.05787 -0.635999 0.156459 27.2344 8.58571 -6.67538 -0.42815 -0.754232 0.287187 18.8565 6.33947 -4.22324 1.4963 7.5744 -1.52136 26.4599 2.5701 -4.50862 5.47506 -0.905672 0.485692 -53.6217 -12.8158 -59.0888 11.3069 -0.201091 0.618544 -45.5772 12.8355 -95.6631 9.61414 -0.254739 3.48553 15.0989 -31.9513 7.5487 -0.176263 -0.07068 1.26622 16.7581 49.0622 -17.8526 1.04683 -0.546484 1.82182 -1.77624 -0.474805 -3.14886 0.993472 -0.621916 0.655506 6.45119 2.66721 11.8095 2.64253 0.566363 2.4162 24.6161 1.22287 8.75887 1.39394 -0.635138 0.899356 -33.2838 6.5913 15.2256 0.622395 -0.856016 0.402182 -38.0065 6.76631 17.5558 3.20814 0.514427 1.52547 6.5111 2.46335 6.51387 1.56545 -0.497974 0.68919 -44.4869 8.35714 21.4001 0.679943 -1.17582 0.444246 -31.1571 7.69444 14.5347 3.47877 0.200518 0.597719 -9.58571 -2.19077 6.58838 1.28208 -0.53155 0.44672 -27.0403 7.78296 13.9492 0.710288 -0.970167 0.4032 -28.3103 7.97061 14.6585 3.42483 -0.278904 -0.240415 -12.642 -4.16799 3.94335 1.05787 -0.635999 0.156459 -22.8634 7.79975 11.538 0.42815 -0.754232 0.287187 -20.8354 7.31989 10.4307 -4.17848 -1.02486 0.046356 -35.8949 5.32337 -2.51202 1.27155 -17.465 -0.237699 83.3263 74.1279 -67.8838 0.529163 -17.3815 -1.19582 -10.7337 12.324 7.27127 -0.711591 -4.4863 4.0596 -9.64696 42.2256 -2.6532 4.17848 -1.02486 0.046356 26.3604 0.86679 16.9282 -1.27155 -17.465 -0.237699 12.1021 78.0843 -15.7668 -0.529163 -17.3815 -1.19582 2.64214 42.9327 -37.6012 0.711591 -4.4863 4.0596 10.1502 40.4425 13.4389 
-5.33851 22.0971 -9.28485 3.94716 -4.89474 -46.0208 0 5.99393 0.287273 -3.54436 0.473078 3.98913 0 6.65865 -0.856112 -7.11323 0.69768 8.00006 0 8.65624 -1.42685 18.0625 11.714 42.6196 1.77636e-015 3.80999 -0.190247 -13.333 17.218 27.8602 -1.4963 7.5744 -1.52136 -26.2649 -0.700619 29.339 -5.47506 -0.905672 0.485692 25.8162 -50.3814 42.1354 -11.3069 -0.201091 0.618544 33.8052 -18.4359 97.2124 -9.61414 -0.254739 3.48553 -64.4742 -31.0429 -68.5319 0.176263 -0.07068 1.26622 -25.6106 37.5712 35.0052 -1.04683 -0.546484 1.82182 2.38373 -2.22898 6.76567 -0.993472 -0.621916 0.655506 -4.31512 5.9355 -14.9408 -2.64253 0.566363 2.4162 6.62234 6.45438 -12.2427 -1.39394 -0.635138 0.899356 43.8771 8.08666 -9.92808 -0.622395 -0.856016 0.402182 45.8619 8.24902 -10.4909 -3.20814 0.514427 1.52547 5.53073 1.9824 -3.67674 -1.56545 -0.497974 0.68919 52.7411 10.5331 -13.0892 -0.679943 -1.17582 0.444246 20.6588 5.62817 -3.96836 -3.47877 0.200518 0.597719 14.7785 -1.00675 -5.58797 -1.28208 -0.53155 0.44672 24.5094 7.16363 -6.02861 -0.710288 -0.970167 0.4032 26.1105 7.52586 -6.51355 -3.42483 -0.278904 -0.240415 -1.33213 -6.5307 -5.1058 -1.05787 -0.635999 0.156459 27.1298 8.56013 -6.64295 -0.42815 -0.754232 0.287187 18.5419 6.24761 -4.13727 1.4963 7.5744 -1.52136 26.0492 2.74172 -4.31582 5.47506 -0.905672 0.485692 -53.1009 -13.7812 -59.7737 11.3069 -0.201091 0.618544 -45.9108 12.6105 -95.3141 9.61414 -0.254739 3.48553 16.6504 -30.0918 7.99881 -0.176263 -0.07068 1.26622 16.4533 49.3028 -17.2946 1.04683 -0.546484 1.82182 -1.65496 -0.445706 -2.93483 0.993472 -0.621916 0.655506 6.4512 2.66721 11.8095 2.64253 0.566363 2.4162 25.3856 1.08125 8.74443 1.39394 -0.635138 0.899356 -33.1815 6.58542 15.1753 0.622395 -0.856016 0.402182 -38.0066 6.76631 17.5558 3.20814 0.514427 1.52547 6.72166 2.55208 6.64658 1.56545 -0.497974 0.68919 -44.4869 8.35713 21.4001 0.679943 -1.17582 0.444246 -31.7324 7.75585 14.8278 3.47877 0.200518 0.597719 -9.62682 -2.17887 6.60482 1.28208 -0.53155 0.44672 -27.3619 7.83188 14.1286 0.710288 -0.970167 0.4032 -28.6371 8.01622 14.8415 3.42483 -0.278904 -0.240415 -13.2894 -4.04036 4.03224 1.05787 -0.635999 0.156459 -22.9685 7.82348 11.5958 0.42815 -0.754232 0.287187 -21.1424 7.39517 10.5976 -4.17848 -1.02486 0.046356 -36.1015 4.75313 -3.27884 1.27155 -17.465 -0.237699 86.5578 74.043 -70.6452 0.529163 -17.3815 -1.19582 -11.9032 12.1296 6.77972 -0.711591 -4.4863 4.0596 -10.0922 43.9034 -2.28485 4.17848 -1.02486 0.046356 27.5554 0.369186 17.6369 -1.27155 -17.465 -0.237699 13.7494 79.2474 -17.4675 -0.529163 -17.3815 -1.19582 3.33483 43.0379 -37.9589 0.711591 -4.4863 4.0596 10.5585 41.6825 13.82 
-4.94609 21.6472 -9.61811 4.04267 -3.69882 -47.165 0 5.99393 0.287273 -3.3909 0.458938 3.57814 0 6.65865 -0.856112 -6.80402 0.70466 7.17733 0 8.65624 -1.42685 18.3871 11.1988 43.4012 0 3.80999 -0.190247 -13.1305 17.3042 27.8294 -1.4963 7.5744 -1.52136 -26.8153 -0.966043 30.1496 -5.47506 -0.905672 0.485692 25.8185 -50.7627 41.6365 -11.3069 -0.201091 0.618544 33.8108 -18.4801 97.7905 -9.61414 -0.254739 3.48553 -64.6145 -31.7321 -68.6686 0.176263 -0.07068 1.26622 -25.7611 37.2154 35.33 -1.04683 -0.546484 1.82182 2.46095 -2.29283 6.97476 -0.993472 -0.621916 0.655506 -4.31464 5.93539 -14.9405 -2.64253 0.566363 2.4162 7.38838 6.44853 -12.2404 -1.39394 -0.635138 0.899356 43.969 8.09458 -9.95399 -0.622395 -0.856016 0.402182 45.8619 8.24907 -10.491 -3.20814 0.514427 1.52547 5.70642 1.88148 -3.5166 -1.56545 -0.497974 0.68919 52.7411 10.5331 -13.0892 -0.679943 -1.17582 0.444246 20.0668 5.4902 -3.82871 -3.47877 0.200518 0.597719 14.7358 -1.01653 -5.58122 -1.28208 -0.53155 0.44672 24.1807 7.08766 -5.93003 -0.710288 -0.970167 0.4032 25.7833 7.45319 -6.41352 -3.42483 -0.278904 -0.240415 -1.97147 -6.67333 -5.22568 -1.05787 -0.635999 0.156459 27.0252 8.53448 -6.61058 -0.42815 -0.754232 0.287187 18.2276 6.15529 -4.05182 1.4963 7.5744 -1.52136 25.7262 2.93571 -4.0636 5.47506 -0.905672 0.485692 -52.6972 -14.6752 -59.886 11.3069 -0.201091 0.618544 -46.3884 12.6919 -95.2295 9.61414 -0.254739 3.48553 18.0765 -28.0729 8.06957 -0.176263 -0.07068 1.26622 16.154 49.532 -16.7522 1.04683 -0.546484 1.82182 -1.5338 -0.416146 -2.72087 0.993472 -0.621916 0.655506 6.4512 2.6672 11.8095 2.64253 0.566363 2.4162 26.1257 0.943057 8.73504 1.39394 -0.635138 0.899356 -33.0905 6.58008 15.1306 0.622395 -0.856016 0.402182 -38.0065 6.76629 17.5558 3.20814 0.514427 1.52547 6.91321 2.63275 6.76838 1.56545 -0.497974 0.68919 -44.4869 8.35712 21.4001 0.679943 -1.17582 0.444246 -32.3081 7.81433 15.1216 3.47877 0.200518 0.597719 -9.66798 -2.16703 6.62131 1.28208 -0.53155 0.44672 -27.6837 7.8798 14.3083 0.710288 -0.970167 0.4032 -28.9401 8.05757 15.0114 3.42483 -0.278904 -0.240415 -13.9129 -3.92082 4.11993 1.05787 -0.635999 0.156459 -23.0736 7.84708 11.6536 0.42815 -0.754232 0.287187 -21.4498 7.46956 10.765 -4.17848 -1.02486 0.046356 -36.646 3.6628 -3.77635 1.27155 -17.465 -0.237699 90.3463 73.8984 -73.9436 0.529163 -17.3815 -1.19582 -12.5394 12.0768 7.11047 -0.711591 -4.4863 4.0596 -10.5464 45.1387 -1.98177 4.17848 -1.02486 0.046356 28.8655 -0.157282 18.8759 -1.27155 -17.465 -0.237699 16.1014 80.5054 -19.8063 -0.529163 -17.3815 -1.19582 4.18657 43.0455 -38.0449 0.711591 -4.4863 4.0596 10.897 43.0333 14.0781 
